<svg width="57" height="21" viewBox="0 0 57 21" fill="none" xmlns="http://www.w3.org/2000/svg">
<path d="M29.1982 15H23.1553V5.04688H24.4814V13.9336H29.1982V15ZM30.1758 11.2266C30.1758 10.5111 30.3125 9.87077 30.5859 9.30566C30.8594 8.74056 31.2467 8.29395 31.748 7.96582C32.2493 7.63314 32.8441 7.4668 33.5322 7.4668C34.2295 7.4668 34.8311 7.63314 35.3369 7.96582C35.8428 8.29395 36.2301 8.74056 36.499 9.30566C36.7725 9.87077 36.9092 10.5111 36.9092 11.2266V11.3838C36.9092 12.0947 36.7725 12.735 36.499 13.3047C36.2301 13.8698 35.8428 14.3164 35.3369 14.6445C34.8356 14.9727 34.2386 15.1367 33.5459 15.1367C32.8532 15.1367 32.2539 14.9727 31.748 14.6445C31.2467 14.3164 30.8594 13.8698 30.5859 13.3047C30.3125 12.735 30.1758 12.0947 30.1758 11.3838V11.2266ZM31.4541 11.3838C31.4541 11.8714 31.5316 12.3226 31.6865 12.7373C31.8415 13.152 32.0716 13.4847 32.377 13.7354C32.6868 13.986 33.0765 14.1113 33.5459 14.1113C34.0107 14.1113 34.3958 13.986 34.7012 13.7354C35.0111 13.4847 35.2435 13.152 35.3984 12.7373C35.5534 12.3226 35.6309 11.8714 35.6309 11.3838V11.2266C35.6309 10.7389 35.5534 10.2878 35.3984 9.87305C35.2435 9.45833 35.0111 9.12565 34.7012 8.875C34.3913 8.61979 34.0016 8.49219 33.5322 8.49219C33.0719 8.49219 32.6868 8.61979 32.377 8.875C32.0671 9.12565 31.8346 9.45833 31.6797 9.87305C31.5293 10.2878 31.4541 10.7389 31.4541 11.2266V11.3838ZM38.2012 11.2402C38.2012 10.4883 38.3197 9.82975 38.5566 9.26465C38.7936 8.69499 39.1309 8.25293 39.5684 7.93848C40.0059 7.62402 40.5254 7.4668 41.127 7.4668C41.5918 7.4668 41.9974 7.54883 42.3438 7.71289C42.6947 7.87695 42.9932 8.10938 43.2393 8.41016L43.2939 7.60352H44.4561V14.8428C44.4561 15.4945 44.3216 16.0505 44.0527 16.5107C43.7884 16.971 43.4193 17.3197 42.9453 17.5566C42.4759 17.7982 41.9336 17.9189 41.3184 17.9189C41.0632 17.9189 40.7624 17.8779 40.416 17.7959C40.0742 17.7184 39.737 17.584 39.4043 17.3926C39.0762 17.2057 38.8005 16.9528 38.5771 16.6338L39.2402 15.8887C39.5501 16.2624 39.8737 16.5221 40.2109 16.668C40.5527 16.8184 40.89 16.8936 41.2227 16.8936C41.8197 16.8936 42.2936 16.7227 42.6445 16.3809C43 16.0436 43.1777 15.5514 43.1777 14.9043V14.2686C42.9362 14.5465 42.6445 14.7607 42.3027 14.9111C41.9609 15.0615 41.5645 15.1367 41.1133 15.1367C40.5208 15.1367 40.0059 14.9749 39.5684 14.6514C39.1354 14.3232 38.7982 13.8766 38.5566 13.3115C38.3197 12.7464 38.2012 12.1038 38.2012 11.3838V11.2402ZM39.4795 11.3838C39.4795 11.876 39.5456 12.3249 39.6777 12.7305C39.8145 13.1361 40.0264 13.4619 40.3135 13.708C40.6006 13.9495 40.972 14.0703 41.4277 14.0703C41.8743 14.0703 42.2367 13.9678 42.5146 13.7627C42.7926 13.5576 43.0137 13.2979 43.1777 12.9834V9.58594C43.0182 9.28516 42.7972 9.03451 42.5146 8.83398C42.2321 8.62891 41.8743 8.52637 41.4414 8.52637C40.9811 8.52637 40.6051 8.64941 40.3135 8.89551C40.0264 9.1416 39.8145 9.47201 39.6777 9.88672C39.5456 10.2969 39.4795 10.748 39.4795 11.2402V11.3838ZM46.377 5.63477C46.377 5.43424 46.4385 5.26335 46.5615 5.12207C46.6891 4.98079 46.876 4.91016 47.1221 4.91016C47.3682 4.91016 47.555 4.98079 47.6826 5.12207C47.8148 5.26335 47.8809 5.43424 47.8809 5.63477C47.8809 5.83073 47.8148 5.99935 47.6826 6.14062C47.555 6.27734 47.3682 6.3457 47.1221 6.3457C46.876 6.3457 46.6891 6.27734 46.5615 6.14062C46.4385 5.99935 46.377 5.83073 46.377 5.63477ZM47.751 15H46.4727V7.60352H47.751V15ZM51.0459 15H49.7676V7.60352H50.9775L51.0186 8.5127C51.2829 8.18457 51.6019 7.92936 51.9756 7.74707C52.3493 7.56022 52.764 7.4668 53.2197 7.4668C53.9489 7.4668 54.5254 7.67415 54.9492 8.08887C55.3776 8.49902 55.5918 9.18717 55.5918 10.1533V15H54.3135V10.1396C54.3135 9.55632 54.1882 9.1416 53.9375 8.89551C53.6868 8.64941 53.3223 8.52637 52.8438 8.52637C52.4382 8.52637 52.0804 8.63574 51.7705 8.85449C51.4652 9.07324 51.2236 9.35807 51.0459 9.70898V15Z" fill="#1976D2"/>
<circle cx="8" cy="6.5" r="3.5" fill="#1976D2"/>
<path fill-rule="evenodd" clip-rule="evenodd" d="M13.1975 13.8111C13.9152 14.6061 13.5371 15.8142 12.5334 16.1877C11.1219 16.7129 9.59444 17 7.99998 17C6.40551 17 4.87809 16.7129 3.46658 16.1877C2.46282 15.8142 2.08475 14.6061 2.8024 13.8111C4.08348 12.3919 5.93756 11.5 7.99997 11.5C10.0624 11.5 11.9165 12.3919 13.1975 13.8111Z" fill="#1976D2"/>
</svg>
